<?xml version="1.0" standalone="no"?>
<!DOCTYPE svg PUBLIC "-//W3C//DTD SVG 20010904//EN"
 "http://www.w3.org/TR/2001/REC-SVG-20010904/DTD/svg10.dtd">
<svg version="1.0" xmlns="http://www.w3.org/2000/svg"
 width="317.000000pt" height="317.000000pt" viewBox="0 0 317.000000 317.000000"
 preserveAspectRatio="xMidYMid meet">
<metadata>
Created by potrace 1.11, written by Peter Selinger 2001-2013
</metadata>
<g transform="translate(0.000000,317.000000) scale(0.100000,-0.100000)"
fill="#000000" stroke="none">
<path d="M2839 1926 c-54 -19 -107 -64 -137 -115 -28 -47 -28 -56 -21 -226 1
-16 -5 -54 -14 -83 -13 -46 -14 -54 0 -67 18 -19 18 -19 89 5 45 16 64 18 84
10 44 -18 123 -14 176 9 103 46 149 117 149 231 0 64 -5 83 -28 122 -61 105
-188 154 -298 114z"/>
<path d="M12 1708 c-8 -8 -12 -61 -12 -180 0 -194 -4 -187 102 -182 96 4 150
38 181 114 17 41 15 122 -4 159 -21 40 -69 80 -108 90 -54 14 -145 13 -159 -1z
m166 -68 c37 -23 54 -58 54 -113 -1 -69 -47 -115 -123 -120 l-45 -4 0 129 0
128 41 0 c22 0 54 -9 73 -20z"/>
<path d="M934 1710 c-12 -4 -31 -21 -43 -36 -55 -70 -1 -145 124 -171 31 -6
42 -14 50 -37 8 -24 6 -31 -14 -47 -13 -10 -34 -19 -48 -19 -31 0 -79 25 -87
45 -9 24 -50 15 -54 -12 -7 -49 92 -101 169 -88 78 13 123 83 95 149 -17 41
-46 59 -119 75 -44 10 -60 18 -67 34 -21 56 77 80 123 31 14 -15 32 -24 43
-22 32 6 28 37 -11 74 -32 30 -42 34 -88 33 -29 0 -62 -4 -73 -9z"/>
<path d="M1810 1702 c-83 -45 -120 -159 -80 -248 35 -80 92 -114 181 -110 87
4 149 54 169 136 19 80 -6 161 -65 206 -50 38 -151 46 -205 16z m165 -67 c34
-25 52 -64 49 -102 -1 -13 -2 -31 -3 -41 -2 -29 -59 -81 -97 -88 -36 -7 -88 9
-113 34 -57 56 -33 187 39 215 38 14 94 6 125 -18z"/>
<path d="M445 1613 c-76 -14 -109 -54 -110 -133 0 -80 34 -120 117 -135 31 -6
104 20 111 39 9 24 -9 39 -39 32 -74 -18 -81 -18 -107 6 -60 53 -24 143 53
131 23 -3 55 -31 46 -40 -2 -2 -21 -5 -42 -6 -29 -1 -40 -7 -42 -21 -2 -10 1
-22 7 -26 10 -5 67 -6 130 -1 23 2 8 89 -21 117 -26 26 -71 42 -103 37z"/>
<path d="M1272 1609 c-95 -20 -132 -149 -64 -222 42 -44 98 -53 164 -26 33 13
42 34 22 53 -12 13 -18 13 -42 0 -15 -7 -37 -14 -50 -14 -33 0 -72 43 -72 78
0 61 71 101 111 61 28 -28 24 -34 -23 -34 -37 0 -43 -3 -46 -22 -4 -26 -7 -25
101 -27 l77 -1 18 -34 c24 -49 62 -74 115 -75 46 0 97 24 97 47 -1 32 -16 39
-48 23 -41 -21 -56 -20 -86 7 -36 31 -40 71 -12 104 26 30 76 34 102 9 19 -20
28 -20 43 -2 16 19 4 44 -32 62 -64 34 -148 8 -177 -54 -20 -42 -41 -40 -63 7
-10 22 -25 42 -35 46 -42 17 -69 21 -100 14z"/>
<path d="M2223 1610 c-46 -10 -77 -33 -95 -70 -22 -45 -23 -274 -1 -291 10 -9
19 -10 31 -2 18 11 19 15 21 80 1 42 1 42 27 28 54 -28 130 1 158 60 49 103
-33 218 -141 195z m86 -98 c27 -68 -26 -128 -90 -102 -42 18 -53 66 -27 117
21 42 98 32 117 -15z"/>
<path d="M2476 1609 c-42 -12 -66 -38 -66 -74 0 -40 21 -59 85 -77 56 -15 72
-42 30 -52 -16 -4 -39 1 -64 13 -29 15 -41 17 -50 8 -20 -20 -12 -46 19 -62
76 -39 167 -17 183 44 12 50 -11 78 -83 98 -33 9 -60 20 -60 24 0 24 72 30 86
8 7 -12 41 -11 49 1 10 15 -4 47 -23 55 -38 16 -79 21 -106 14z"/>
<path d="M600 1600 c-12 -7 -7 -25 30 -107 54 -122 76 -154 96 -146 9 3 41 58
70 121 48 101 53 118 40 130 -24 24 -43 7 -81 -75 l-37 -78 -38 83 c-38 80
-50 91 -80 72z"/>
</g>
</svg>
