<?xml version="1.0" standalone="no"?>
<!DOCTYPE svg PUBLIC "-//W3C//DTD SVG 20010904//EN"
 "http://www.w3.org/TR/2001/REC-SVG-20010904/DTD/svg10.dtd">
<svg version="1.0" xmlns="http://www.w3.org/2000/svg"
 width="455.000000pt" height="455.000000pt" viewBox="0 0 455.000000 455.000000"
 preserveAspectRatio="xMidYMid meet">
<metadata>
Created by potrace 1.11, written by Peter Selinger 2001-2013
</metadata>
<g transform="translate(0.000000,455.000000) scale(0.100000,-0.100000)"
fill="#000000" stroke="none">
<path d="M2099 4536 c-2 -2 -35 -7 -74 -10 -38 -4 -77 -9 -85 -11 -8 -2 -35
-7 -60 -10 -108 -14 -338 -80 -469 -135 -384 -160 -703 -404 -948 -725 -191
-251 -363 -619 -409 -875 -2 -14 -7 -36 -10 -50 -12 -49 -11 -49 -34 -225 -8
-66 -6 -451 3 -475 3 -8 8 -37 11 -65 3 -27 8 -59 10 -70 2 -11 12 -56 21 -99
18 -87 78 -275 120 -375 151 -365 412 -697 735 -937 309 -230 674 -381 1040
-430 19 -2 64 -8 100 -13 66 -10 434 -8 480 2 14 3 48 8 75 12 28 3 59 8 70
10 11 3 31 7 45 9 120 20 304 77 455 142 107 45 279 136 308 161 9 9 17 13 17
9 0 -4 9 2 20 12 11 10 32 25 47 33 15 8 40 26 57 41 17 16 35 28 41 28 6 0
21 10 32 22 11 13 40 39 64 58 100 80 275 272 387 425 11 15 74 115 95 150 81
138 220 476 241 588 2 12 13 72 25 132 11 61 25 144 30 185 9 78 7 464 -3 490
-3 8 -7 33 -10 56 -4 35 -16 108 -30 180 -7 36 -46 165 -77 259 -34 101 -185
415 -200 415 -5 0 -9 5 -9 11 0 12 -80 133 -92 137 -4 2 -8 8 -8 14 0 6 -12
25 -27 43 -16 17 -46 54 -68 80 -83 100 -234 244 -345 328 -97 74 -87 66 -150
108 -251 166 -579 292 -875 338 -38 6 -86 13 -105 17 -38 6 -435 15 -441 10z"/>
</g>
</svg>
